<?xml version="1.0" encoding="utf-8"?>
<!-- Generator: Adobe Illustrator 23.0.0, SVG Export Plug-In . SVG Version: 6.00 Build 0)  -->
<svg version="1.1" id="Capa_1" xmlns="http://www.w3.org/2000/svg" xmlns:xlink="http://www.w3.org/1999/xlink" x="0px" y="0px"
	 viewBox="0 0 196.1 59.4" style="enable-background:new 0 0 196.1 59.4;" xml:space="preserve">
<style type="text/css">
	.st0{fill:#F15F2A;}
</style>
<g>
	<path class="st0" d="M195.8,38c-1.3-7.3-7.9-12.3-15.2-11.8c1.1-3,2.6-8.5-0.3-13.1c-1.2-1.9-3.5-2.9-5.4-3.8
		c-1.5-0.7-3.1-1.4-3.5-2.2c-0.2-0.6,0-1,0.7-1.9c0.6-0.7,1.6-2,0.7-3.3c-1.5-2.5-6.2-2.4-10.3,0.2c-4.3,2.6-6.3,6.6-4.8,9.2
		c0.2,0.4,0.8,1,2,1c0.5,0,0.9-0.1,1.4-0.2c0.8-0.2,1.6-0.3,2.1,0.2c0.6,0.7,0.5,2.4,0.4,4.1c-0.1,2.2-0.2,4.6,0.9,6.5
		c3.6,5.9,12,6.2,13.6,6.2c0,0,0.2,0,0.3,0c0.1,0,0.3-0.1,0.4-0.1c0.2,0,0.3,0.1,0.4,0.1c6.5-1.2,12.6,3.1,13.7,9.5
		c0.7,4-0.2,8.3-2.6,11.6c-1.5,2.1-3.5,3.7-5.7,4.7c0,0,0,0,0.1,0c5-4,5.8-11.3,1.9-16.3c-3.3-4.1-9.3-4.8-13.5-1.5
		c-3.4,2.7-4,7.7-1.3,11.1c2.3,2.8,6.4,3.3,9.3,1.1c0.3-0.2,0.5-0.6,0.5-1c0.3-0.4,0.4-0.9,0.4-1.5c0-1.6-1.3-2.9-3-2.9
		s-2.9,1.3-2.9,2.9c0,0.4,0.1,0.7,0.2,1.1c-0.9-0.1-1.8-0.6-2.4-1.4c-1.8-2.3-1.4-5.5,0.8-7.3c3-2.4,7.3-1.9,9.7,1.1
		c3,3.8,2.4,9.5-1.4,12.5c-4.9,3.9-10.7,3.2-16.3-2c-0.2-0.2-0.5-0.3-0.8-0.3c-2.7-2.6-5.4-6-8.6-10c-1.5-1.8-2.8-3.8-4.3-5.8
		c0.5,0.1,1,0.2,1.5,0.2c1.5,0,3-0.4,4.4-1.2c3.7-2.1,5-6.7,2.9-10.4c-1.7-3.1-5.7-4.2-8.7-2.4c-1.2,0.7-2.1,1.9-2.5,3.2
		c-0.4,1.4-0.2,2.8,0.5,4.1c0.6,1.1,1.6,1.8,2.8,2.2c1.2,0.3,2.4,0.2,3.5-0.4c0.5-0.3,0.6-0.8,0.6-1.2c0.1-0.1,0.1-0.3,0.1-0.4
		c0.1-1-0.5-1.9-1.5-2.1c-1-0.1-1.9,0.5-2,1.5c-0.4-0.1-0.8-0.4-1-0.8c-0.4-0.6-0.4-1.3-0.3-2c0.2-0.7,0.6-1.3,1.3-1.6
		c1.8-1,4-0.4,5,1.4c1.3,2.4,0.5,5.4-1.9,6.8c-4,2.3-7.2-0.4-8.8-2.4c-6.8-9.2-14.6-17.4-28.1-17.4c0,0-0.1,0-0.1,0
		c-6.7,0-12.8,2.7-17.1,7.6c-2.8,3.1-4.6,6.9-5.5,11.1c-1-4.2-2.8-8-5.5-11.1c-4.3-4.9-10.4-7.5-17.1-7.6c0,0-0.1,0-0.1,0
		c-13.6,0-21.3,8.2-28.1,17.4c-1.6,2-4.8,4.6-8.8,2.4c-2.4-1.3-3.2-4.4-1.9-6.8c1-1.8,3.3-2.4,5-1.4c0.6,0.3,1.1,0.9,1.3,1.6
		c0.2,0.7,0.1,1.4-0.3,2c-0.2,0.4-0.6,0.7-1,0.8c-0.2-1-1.1-1.6-2-1.5c-1,0.1-1.7,1.1-1.5,2.1c0,0.2,0.1,0.3,0.1,0.4
		c0,0.5,0.1,1,0.6,1.2c1.1,0.6,2.3,0.8,3.5,0.4c1.2-0.3,2.2-1.1,2.8-2.2c0.7-1.3,0.9-2.7,0.5-4.1c-0.4-1.4-1.3-2.5-2.5-3.2
		c-3.1-1.7-7-0.6-8.7,2.4c-2.1,3.7-0.8,8.4,2.9,10.4c1.4,0.8,2.9,1.2,4.4,1.2c0.5,0,1-0.1,1.5-0.2c-1.4,2-2.8,3.9-4.3,5.8
		c-3.2,4-5.9,7.4-8.6,10c-0.3,0-0.6,0.1-0.8,0.3c-5.6,5.2-11.4,5.9-16.3,2c-3.9-3.1-4.5-8.7-1.4-12.5c2.4-3,6.7-3.5,9.7-1.1
		c2.3,1.8,2.6,5.1,0.8,7.3c-0.6,0.8-1.5,1.2-2.4,1.4c0.1-0.3,0.2-0.7,0.2-1.1c0-1.6-1.3-2.9-2.9-2.9c-1.6,0-3,1.3-3,2.9
		c0,0.5,0.2,1,0.4,1.5c0,0.4,0.2,0.7,0.5,1c2.9,2.3,7,1.8,9.3-1.1c2.7-3.4,2.2-8.4-1.3-11.1c-4.1-3.3-10.2-2.6-13.5,1.5
		c-4,5-3.2,12.4,1.9,16.3c0,0,0.1,0,0.1,0.1c-2.3-1-4.3-2.6-5.8-4.7c-2.4-3.3-3.3-7.6-2.6-11.6c1.2-6.4,7.3-10.7,13.7-9.5
		c0.1,0,0.3-0.1,0.4-0.1c0.1,0,0.3,0.1,0.4,0.1c0,0,0.2,0,0.3,0c1.6,0,10-0.3,13.6-6.2c1.2-1.9,1.1-4.4,0.9-6.5
		c-0.1-1.7-0.2-3.4,0.4-4.1c0.5-0.5,1.2-0.4,2.1-0.2c0.4,0.1,0.9,0.2,1.3,0.2c1.2,0,1.7-0.6,2-1c1.6-2.6-0.5-6.5-4.8-9.2
		c-4.1-2.5-8.8-2.6-10.3-0.1c-0.8,1.4,0.1,2.6,0.7,3.3c0.7,0.9,1,1.3,0.7,1.9c-0.3,0.8-1.9,1.5-3.5,2.2c-2,0.9-4.2,1.8-5.4,3.8
		c-2.8,4.6-1.4,10.1-0.3,13.1C8.2,25.7,1.6,30.7,0.3,38c-0.9,4.8,0.3,9.7,3.1,13.7c2.8,3.8,6.8,6.3,11.4,7
		c11.5,1.8,18.3-6.8,26.1-16.6c0-0.1,0.1-0.1,0.1-0.2c0,0,0,0,0,0c1.7-1.9,5.1-4.6,9.2-1.9c2.3,1.5,2.9,4.6,1.4,6.9
		c-1.1,1.7-3.4,2.1-5.1,1c-0.6-0.4-1-1-1.2-1.7c-0.1-0.7,0-1.4,0.4-2c0.3-0.5,0.8-0.7,1.3-0.8c0.1,0.9,1,1.6,1.9,1.5
		c1-0.1,1.7-1,1.7-1.9c0-0.2-0.1-0.4-0.2-0.6c0-0.4-0.2-0.7-0.6-1c-2.1-1.4-4.9-0.8-6.3,1.3c-0.8,1.2-1.1,2.6-0.8,4
		c0.3,1.4,1.1,2.6,2.3,3.4c1.1,0.7,2.3,1.1,3.5,1.1c2.1,0,4.1-1,5.3-2.8c2.3-3.5,1.4-8.3-2.1-10.6c-2.1-1.4-4.3-1.8-6.5-1.4
		c0.3-0.4,0.6-0.8,0.9-1.3c1.1-1.6,2.3-3.1,3.4-4.7c0,0,0.1-0.1,0.1-0.1c0,0,0,0,0,0c6.4-8.5,13.6-16.1,25.8-16.1c0,0,0.1,0,0.1,0
		c5.9,0,11.3,2.4,15.1,6.7c4.3,4.8,6.3,11.6,5.5,18.6c-0.6,5.1-3.1,9.8-7.1,13c-3.7,3-8.3,4.4-13.1,4.2c-2.9-0.5-5.2-1.8-6.6-3.9
		c-1.8-2.5-2.4-6-1.6-9.6c0.5-2.3,1.9-4.3,3.9-5.6c2-1.3,4.4-1.7,6.7-1.2c1.8,0.4,3.3,1.5,4.3,3c1,1.5,1.3,3.4,1,5.2
		c-0.3,1.4-1.1,2.5-2.2,3.3c-1.2,0.8-2.6,1-3.9,0.7c-0.9-0.2-1.7-0.8-2.3-1.5c1.4-0.3,2.5-1.4,2.4-2.9c0-1.6-1.4-2.9-3-2.9
		c-1.3,0-2.3,0.8-2.7,1.9c0,0.1-0.1,0.1-0.1,0.2c0,0.2,0,0.3,0,0.5c0,0.1-0.1,0.3-0.1,0.4c0,0.1,0.1,0.2,0.1,0.3
		c0,1.3,0.2,2.6,0.9,3.8c1,1.5,2.4,2.5,4.2,2.9c2.1,0.4,4.2,0,6-1.1c1.8-1.2,3-2.9,3.4-5c0.5-2.5,0.1-5-1.3-7.2
		c-1.4-2.1-3.5-3.6-6-4.2c-3-0.6-6.2-0.1-8.8,1.6c-2.6,1.7-4.4,4.3-5,7.3c-0.8,3.7-0.3,7.3,1.2,10.2c-0.6-0.5-1.2-1.1-1.7-1.7
		c-2.6-3.2-3.7-7.1-3.3-11.2c0.7-6.5,6.6-11.2,13.1-10.5c0.8,0.2,1.4-0.5,1.5-1.2c0.1-0.8-0.5-1.4-1.2-1.5
		c-8-0.9-15.2,4.9-16.1,12.9c-0.5,4.8,0.8,9.4,3.8,13.2c3,3.7,7.3,6.1,12,6.6c0.5,0.1,1,0.1,1.5,0.1c0.1,0,0.1,0,0.2,0
		c0.1,0,0.1,0,0.2,0c0,0,0.1,0,0.1,0c0.2,0,0.3,0,0.5,0c5,0,9.8-1.7,13.8-4.9c3.7-3,6.2-7,7.4-11.6c1.2,4.5,3.7,8.6,7.4,11.6
		c3.9,3.2,8.8,4.9,13.8,4.9c0.2,0,0.3,0,0.5,0c0,0,0.1,0,0.1,0c0.1,0,0.1,0,0.2,0c0.1,0,0.1,0,0.2,0c0.5,0,1,0,1.5-0.1
		c4.8-0.5,9-2.8,12-6.6c3-3.7,4.4-8.4,3.8-13.2c-0.9-8-8.1-13.8-16.1-12.9c-0.7,0.1-1.3,0.8-1.2,1.5c0.1,0.7,0.6,1.4,1.5,1.2
		c6.5-0.6,12.4,4,13.1,10.5c0.4,4-0.7,8-3.3,11.2c-0.5,0.6-1.1,1.2-1.7,1.7c1.5-2.9,2-6.5,1.2-10.2c-0.6-3-2.4-5.6-5-7.3
		c-2.6-1.7-5.7-2.3-8.8-1.6c-2.5,0.5-4.6,2-6,4.2c-1.4,2.1-1.9,4.7-1.3,7.2c0.4,2.1,1.6,3.9,3.4,5c1.8,1.2,3.9,1.6,6,1.1
		c1.7-0.4,3.2-1.4,4.2-2.9c0.7-1.1,1-2.4,0.9-3.8c0-0.1,0.1-0.2,0.1-0.3c0-0.1-0.1-0.3-0.1-0.4c0-0.1,0-0.3,0-0.5
		c0-0.1-0.1-0.1-0.1-0.2c-0.4-1.1-1.4-1.9-2.7-1.9c-1.6,0-3,1.3-3,2.9c0,1.5,1.1,2.6,2.4,2.9c-0.6,0.8-1.4,1.3-2.3,1.5
		c-1.4,0.3-2.8,0-3.9-0.7c-1.2-0.8-2-1.9-2.2-3.3c-0.4-1.8,0-3.6,1-5.1c1-1.5,2.5-2.6,4.3-3c2.3-0.5,4.7,0,6.7,1.2
		c2,1.3,3.4,3.3,3.9,5.6c0.8,3.6,0.2,7.1-1.6,9.6c-1.5,2.1-3.8,3.4-6.6,3.9c-4.7,0.2-9.3-1.2-13-4.2c-4-3.2-6.5-7.8-7.1-13
		c-0.8-7,1.2-13.8,5.5-18.6c3.8-4.3,9.2-6.6,15.1-6.6c0,0,0.1,0,0.1,0c12.1,0,19.4,7.6,25.8,16.1c0,0,0,0,0,0c0,0,0,0.1,0.1,0.1
		c1.2,1.6,2.3,3.1,3.4,4.7c0.3,0.4,0.6,0.8,0.9,1.3c-2.2-0.4-4.5,0-6.6,1.4c-3.5,2.3-4.5,7.1-2.1,10.6c1.2,1.9,3.3,2.8,5.3,2.8
		c1.2,0,2.5-0.3,3.5-1.1c1.2-0.8,2-2,2.3-3.4c0.3-1.4,0-2.8-0.8-4c-1.4-2.1-4.2-2.7-6.4-1.3c-0.3,0.2-0.5,0.6-0.6,1
		c-0.1,0.2-0.1,0.4-0.2,0.6c-0.1,1,0.6,1.9,1.7,1.9c0.9,0.1,1.7-0.6,1.9-1.5c0.5,0.1,1,0.3,1.3,0.8c0.4,0.6,0.5,1.3,0.4,2
		c-0.1,0.7-0.6,1.3-1.1,1.7c-1.7,1.1-4,0.7-5.1-1c-1.5-2.3-0.9-5.3,1.4-6.9c4-2.7,7.5,0.1,9.2,2h0c0,0.1,0.1,0.1,0.1,0.2
		c7.8,9.9,14.6,18.4,26.1,16.6c4.6-0.7,8.6-3.2,11.4-7C195.6,47.7,196.7,42.8,195.8,38z M167,21.4c-0.8-1.2-0.7-3.1-0.6-5
		c0.1-2.2,0.2-4.5-1.2-6c-0.8-0.8-1.7-1.2-2.9-1.2c-0.6,0-1.3,0.1-1.7,0.2c-0.2,0-0.4,0.1-0.6,0.1c-0.2-1.1,1.1-3.4,4-5.2
		c2.5-1.5,5.5-2,6.4-1.2c-0.1,0.1-0.2,0.3-0.3,0.4c-0.7,0.9-2,2.5-1.2,4.6c0.7,1.9,2.8,2.8,4.9,3.7c1.7,0.7,3.5,1.5,4.2,2.7
		c2.1,3.4,1.1,7.6,0.2,10.2l-1.9-3c1.3-1.5,1.6-3.7,0.5-5.4c-1.3-2.1-4.3-2.8-6.3-1.5c-1.1,0.6-1.8,1.7-2.1,2.9
		c-0.3,1.2-0.1,2.4,0.6,3.5c0.8,1.4,2.3,2.2,3.9,2.2c0.4,0,0.8-0.1,1.1-0.2l1.8,3C173.3,25.8,169,24.7,167,21.4z M173,20.6
		c-0.7,0-1.3-0.3-1.6-0.9c-0.3-0.4-0.3-0.9-0.2-1.4c0.1-0.5,0.4-0.9,0.9-1.2c0.3-0.2,0.6-0.3,1-0.3c0.7,0,1.3,0.3,1.6,0.9
		c0.6,0.9,0.3,2.1-0.6,2.6C173.7,20.5,173.4,20.6,173,20.6z M18,14.5c0.8-1.2,2.5-2,4.2-2.7c2.1-0.9,4.2-1.8,4.9-3.7
		c0.8-2.1-0.4-3.7-1.2-4.6c-0.1-0.1-0.2-0.3-0.3-0.4c0.9-0.8,3.9-0.3,6.4,1.2c2.9,1.8,4.2,4.1,4,5.2c-0.2,0-0.3-0.1-0.6-0.1
		c-0.5-0.1-1.1-0.2-1.7-0.2c-1.1,0-2.1,0.4-2.9,1.2c-1.4,1.5-1.3,3.8-1.2,6c0.1,1.9,0.2,3.8-0.6,5c-2.1,3.3-6.3,4.4-9,4.7l1.8-3
		c0.4,0.1,0.8,0.2,1.1,0.2c1.6,0,3.1-0.8,3.9-2.2c0.6-1,0.8-2.3,0.6-3.5c-0.3-1.2-1-2.2-2.1-2.9c-2.1-1.3-5.1-0.6-6.3,1.5
		c-1.1,1.7-0.8,3.9,0.5,5.4l-1.9,3C16.9,22.1,15.9,17.9,18,14.5z M22.1,20.3c-0.9-0.6-1.2-1.7-0.6-2.6c0.3-0.6,1-0.9,1.6-0.9
		c0.3,0,0.7,0.1,1,0.3c0.4,0.3,0.7,0.7,0.8,1.2c0.1,0.5,0,1-0.2,1.5C24.2,20.6,23,20.9,22.1,20.3z"/>
</g>
</svg>
